<svg xmlns="http://www.w3.org/2000/svg" width="14" height="16" viewBox="22 16 14 16"><g data-name="cycle-couple-of-arrows-hand-drawn-lines"><path d="M26.872 17.012c-5.568.889-6.335 9.365-2.445 12.73-.332.168-.664.335-1 .495-.446.213-.549.894-.322 1.307.267.484.782.555 1.228.342.818-.39 1.621-.814 2.423-1.241a.824.824 0 0 0 .396-.432c.183-.233.246-.558.196-.885a24.528 24.528 0 0 1-.237-2.324c-.07-1.224-1.864-1.23-1.795 0 .02.352.049.703.082 1.054-2.617-2.643-2.137-8.552 1.95-9.204 1.142-.182.656-2.022-.476-1.842ZM33.573 18.259c.332-.17.664-.336 1-.496.446-.213.549-.894.322-1.307-.267-.484-.782-.555-1.228-.342-.818.39-1.62.814-2.423 1.241a.825.825 0 0 0-.396.432c-.183.233-.245.558-.196.885.118.77.194 1.545.238 2.324.069 1.224 1.863 1.23 1.794 0-.02-.352-.048-.703-.082-1.054 2.617 2.643 2.137 8.552-1.95 9.204-1.142.182-.656 2.022.476 1.842 5.568-.889 6.335-9.365 2.445-12.73Z" fill-rule="evenodd" data-name="Path"/></g></svg>